# xmcd
#
# Track frame offsets:
# 150
# 18674
# 35774
# 55282
# 73383
# 88881
# 95661
# 116031
# 130284
# 142671
# 162894
# 179269
# 188277
# 210104
# 230896
# 249430
# 262624
# 280938
# 302328
# 322376
#
# Disc length: 4546 seconds
#
# Revision: 0
# Processed by: cddbd v1.4PL0 Copyright (c) Steve Scherf et al.
# Submitted via: Audion 3.0.2 (http://www.panic.com/audion/)
#
DISCID=1e11c014
DTITLE=misc - anime ongaku--purple
DYEAR=1900
DGENRE=
TTITLE0=y'know
TTITLE1=love panic
TTITLE2=blurry eyes
TTITLE3=sutekina serenade
TTITLE4=che! che! che!
TTITLE5=sakura saku (slow)
TTITLE6=rock my love
TTITLE7=itoshi hitono tameni
TTITLE8=itami
TTITLE9=moment
TTITLE10=study a go! go!
TTITLE11=still love her
TTITLE12=grip!
TTITLE13=ultra relax
TTITLE14=my will
TTITLE15=the moment's memory
TTITLE16=fukai mori
TTITLE17=juuneku ya
TTITLE18=daijyoubu
TTITLE19=take me baby
EXTD=
EXTT0=
EXTT1=
EXTT2=
EXTT3=
EXTT4=
EXTT5=
EXTT6=
EXTT7=
EXTT8=
EXTT9=
EXTT10=
EXTT11=
EXTT12=
EXTT13=
EXTT14=
EXTT15=
EXTT16=
EXTT17=
EXTT18=
EXTT19=
PLAYORDER=
